<svg width="28" height="28" viewBox="0 0 28 28" fill="none" xmlns="http://www.w3.org/2000/svg">
<path d="M22.1667 7C23.9167 8.75 24.5 11.6667 24.5 14C24.5 16.3333 23.9167 19.25 22.1667 21M18.6667 10.5C19.25 11.0833 19.8334 12.25 19.8334 14C19.8334 15.75 19.25 16.9167 18.6667 17.5M3.5 12.25V15.75C3.5 17.0387 4.08333 18.0833 6.41667 18.6667C8.75 19.25 10.5 24.5 14 24.5C16.3333 24.5 16.3333 3.5 14 3.5C10.5 3.5 8.75 8.75 6.41667 9.33333C4.08333 9.91667 3.5 10.9613 3.5 12.25Z" stroke="#141313" stroke-width="1.5" stroke-linecap="round" stroke-linejoin="round"/>
</svg>
