<svg width="39" height="40" viewBox="0 0 39 40" fill="none" xmlns="http://www.w3.org/2000/svg">
<g clip-path="url(#clip0_1_79)">
<path fill-rule="evenodd" clip-rule="evenodd" d="M23.8218 6.32184C23.8218 3.93495 21.8869 2 19.5 2C17.1131 2 15.1782 3.93495 15.1782 6.32183C15.1782 7.25154 14.636 8.07187 13.8279 8.45609C13.1775 8.76532 12.5579 9.12611 11.9746 9.53289C11.17 10.094 10.0855 10.1982 9.16237 9.70712C7.08812 8.60358 4.47387 9.38001 3.33825 11.4369C2.21436 13.4725 2.96369 15.9955 5.01652 17.0876C6.03709 17.6306 6.58471 18.6828 6.58471 19.7234C6.58471 19.8223 6.58589 19.9209 6.58822 20.0191C6.61421 21.1126 6.04102 22.2049 4.98262 22.7529C2.91811 23.8219 2.14036 26.3363 3.24078 28.3842C4.35252 30.4532 6.95651 31.2586 9.04224 30.1787C10.2333 29.562 11.5885 29.7037 12.6145 30.3328C12.87 30.4894 13.1316 30.6376 13.3988 30.777C14.4303 31.3148 15.1782 32.3977 15.1782 33.6782C15.1782 36.0651 17.1131 38 19.5 38C21.8869 38 23.8218 36.0651 23.8218 33.6782C23.8218 32.3977 24.5697 31.3148 25.6012 30.777C25.8257 30.6599 26.0461 30.5366 26.2624 30.4073C27.2958 29.7894 28.653 29.6627 29.8377 30.2929C31.9119 31.3964 34.5262 30.62 35.6618 28.5631C36.7857 26.5275 36.0363 24.0045 33.9835 22.9124C32.9304 22.3521 32.3693 21.2525 32.4077 20.1588C32.4127 20.0144 32.4153 19.8692 32.4153 19.7234C32.4153 18.7486 32.9438 17.803 33.8685 17.3242L34.0174 17.2471C36.0819 16.1781 36.8596 13.6637 35.7592 11.6158C34.6475 9.54682 32.0435 8.74137 29.9578 9.82132C29.0273 10.3031 27.9421 10.1863 27.1424 9.61542C26.5252 9.17477 25.8661 8.78608 25.1721 8.45608C24.3639 8.07186 23.8218 7.25154 23.8218 6.32184ZM19.5 0C22.9915 0 25.8218 2.83038 25.8218 6.32184C25.8218 6.46231 25.904 6.58952 26.0308 6.64984C26.8315 7.03052 27.592 7.47902 28.3045 7.98767C28.5199 8.14145 28.8031 8.16696 29.0382 8.04528C32.0942 6.46293 35.8921 7.63767 37.521 10.6691C39.1499 13.7006 37.993 17.4408 34.937 19.0231L34.7881 19.1002C34.5564 19.2202 34.4153 19.4624 34.4153 19.7234C34.4153 19.8926 34.4123 20.0611 34.4064 20.2289C34.3931 20.6083 34.5877 20.9684 34.9229 21.1467C37.9616 22.7633 39.0763 26.5166 37.4126 29.5298C35.749 32.543 31.937 33.6752 28.8983 32.0586C28.3919 31.7892 27.7811 31.8294 27.2888 32.1238C27.0393 32.273 26.7849 32.4153 26.5259 32.5503C26.1026 32.7711 25.8218 33.2007 25.8218 33.6782C25.8218 37.1696 22.9915 40 19.5 40C16.0085 40 13.1782 37.1696 13.1782 33.6782C13.1782 33.2007 12.8974 32.7711 12.4741 32.5503C12.1658 32.3896 11.864 32.2186 11.5691 32.0378C11.0806 31.7383 10.4708 31.6912 9.96184 31.9547C6.90582 33.5371 3.10793 32.3623 1.47902 29.3309C-0.149899 26.2994 1.007 22.5592 4.06302 20.9769C4.39953 20.8026 4.59779 20.4455 4.58879 20.0666C4.58607 19.9525 4.58471 19.8381 4.58471 19.7234C4.58471 19.3636 4.39485 19.0223 4.07716 18.8533C1.03845 17.2367 -0.0762596 13.4834 1.58738 10.4702C3.25103 7.45696 7.06303 6.3248 10.1017 7.94144C10.3336 8.06483 10.6151 8.04266 10.8305 7.8924C11.5038 7.42287 12.2188 7.00658 12.9692 6.64985C13.096 6.58953 13.1782 6.46231 13.1782 6.32183C13.1782 2.83038 16.0085 0 19.5 0ZM15.0373 19.9654C15.0373 22.3298 17.0002 24.3094 19.5 24.3094C21.9998 24.3094 23.9627 22.3298 23.9627 19.9654C23.9627 17.6011 21.9998 15.6214 19.5 15.6214C17.0002 15.6214 15.0373 17.6011 15.0373 19.9654ZM13.0373 19.9654C13.0373 23.4691 15.9308 26.3094 19.5 26.3094C23.0693 26.3094 25.9627 23.4691 25.9627 19.9654C25.9627 16.4617 23.0693 13.6214 19.5 13.6214C15.9308 13.6214 13.0373 16.4617 13.0373 19.9654Z" fill="white"/>
</g>
<defs>
<clipPath id="clip0_1_79">
<rect width="39" height="40" fill="white"/>
</clipPath>
</defs>
</svg>
